<svg width="350" height="54" viewBox="0 0 350 54" fill="none" xmlns="http://www.w3.org/2000/svg">
<rect x="304.5" y="2.5" width="43" height="49" fill="#E8C8D7" stroke="black" stroke-width="5"></rect>
<mask id="path-2-inside-1_7_23" fill="white">
<path d="M321.375 36.6C321.125 36.35 321 36.054 321 35.712C321 35.3707 321.125 35.075 321.375 34.825L328.7 27.5L321.35 20.15C321.117 19.9167 321 19.625 321 19.275C321 18.925 321.125 18.625 321.375 18.375C321.625 18.125 321.921 18 322.263 18C322.604 18 322.9 18.125 323.15 18.375L331.55 26.8C331.65 26.9 331.721 27.0083 331.763 27.125C331.804 27.2417 331.825 27.3667 331.825 27.5C331.825 27.6333 331.804 27.7583 331.763 27.875C331.721 27.9917 331.65 28.1 331.55 28.2L323.125 36.625C322.892 36.8583 322.604 36.975 322.263 36.975C321.921 36.975 321.625 36.85 321.375 36.6Z"></path>
</mask>
<path d="M321.375 36.6C321.125 36.35 321 36.054 321 35.712C321 35.3707 321.125 35.075 321.375 34.825L328.7 27.5L321.35 20.15C321.117 19.9167 321 19.625 321 19.275C321 18.925 321.125 18.625 321.375 18.375C321.625 18.125 321.921 18 322.263 18C322.604 18 322.9 18.125 323.15 18.375L331.55 26.8C331.65 26.9 331.721 27.0083 331.763 27.125C331.804 27.2417 331.825 27.3667 331.825 27.5C331.825 27.6333 331.804 27.7583 331.763 27.875C331.721 27.9917 331.65 28.1 331.55 28.2L323.125 36.625C322.892 36.8583 322.604 36.975 322.263 36.975C321.921 36.975 321.625 36.85 321.375 36.6Z" fill="black"></path>
<path d="M321.375 34.825L325.618 39.0676L325.618 39.0676L321.375 34.825ZM328.7 27.5L332.943 31.7426L337.185 27.5L332.943 23.2574L328.7 27.5ZM321.35 20.15L317.107 24.3926L317.107 24.3926L321.35 20.15ZM323.15 18.375L327.399 14.1387L327.393 14.1324L323.15 18.375ZM331.55 26.8L327.301 31.0363L327.307 31.0426L331.55 26.8ZM331.763 27.125L337.419 25.1213L337.413 25.107L337.408 25.0927L331.763 27.125ZM331.763 27.875L337.408 29.9073L337.413 29.893L337.419 29.8787L331.763 27.875ZM331.55 28.2L335.793 32.4426L335.793 32.4426L331.55 28.2ZM323.125 36.625L318.882 32.3824L318.882 32.3824L323.125 36.625ZM325.618 32.3574C325.985 32.7246 326.354 33.2229 326.621 33.8563C326.89 34.4937 327 35.1335 327 35.712H315C315 37.7044 315.8 39.5099 317.132 40.8426L325.618 32.3574ZM327 35.712C327 36.2924 326.89 36.9332 326.62 37.5707C326.352 38.204 325.984 38.7015 325.618 39.0676L317.132 30.5824C315.802 31.9126 315 33.7168 315 35.712H327ZM325.618 39.0676L332.943 31.7426L324.457 23.2574L317.132 30.5824L325.618 39.0676ZM332.943 23.2574L325.593 15.9074L317.107 24.3926L324.457 31.7426L332.943 23.2574ZM325.593 15.9074C326.021 16.3357 326.4 16.8815 326.658 17.5279C326.914 18.1673 327 18.7737 327 19.275H315C315 21.1092 315.675 22.9605 317.107 24.3926L325.593 15.9074ZM327 19.275C327 19.8306 326.897 20.4592 326.632 21.0952C326.368 21.73 325.998 22.2375 325.618 22.6176L317.132 14.1324C315.77 15.4947 315 17.3156 315 19.275H327ZM325.618 22.6176C325.25 22.9849 324.752 23.3536 324.119 23.6211C323.481 23.8903 322.841 24 322.263 24V12C320.271 12 318.465 12.7996 317.132 14.1324L325.618 22.6176ZM322.263 24C321.683 24 321.042 23.8897 320.404 23.6202C319.771 23.3524 319.274 22.9838 318.907 22.6176L327.393 14.1324C326.062 12.8021 324.258 12 322.263 12V24ZM318.901 22.6113L327.301 31.0363L335.799 22.5637L327.399 14.1387L318.901 22.6113ZM327.307 31.0426C326.871 30.6059 326.414 29.9811 326.118 29.1573L337.408 25.0927C337.028 24.0355 336.429 23.1941 335.793 22.5574L327.307 31.0426ZM326.107 29.1287C325.904 28.5539 325.825 27.9964 325.825 27.5H337.825C337.825 26.7369 337.705 25.9294 337.419 25.1213L326.107 29.1287ZM325.825 27.5C325.825 27.0036 325.904 26.4461 326.107 25.8713L337.419 29.8787C337.705 29.0706 337.825 28.2631 337.825 27.5H325.825ZM326.118 25.8427C326.414 25.0189 326.871 24.3941 327.307 23.9574L335.793 32.4426C336.429 31.8059 337.028 30.9645 337.408 29.9073L326.118 25.8427ZM327.307 23.9574L318.882 32.3824L327.368 40.8676L335.793 32.4426L327.307 23.9574ZM318.882 32.3824C319.296 31.9687 319.831 31.5907 320.477 31.3283C321.12 31.0675 321.738 30.975 322.263 30.975V42.975C324.134 42.975 325.967 42.2687 327.368 40.8676L318.882 32.3824ZM322.263 30.975C322.841 30.975 323.481 31.0847 324.119 31.3539C324.752 31.6214 325.25 31.9901 325.618 32.3574L317.132 40.8426C318.465 42.1754 320.271 42.975 322.263 42.975V30.975Z" fill="black" mask="url('#path-2-inside-1_7_23')"></path>
<rect x="2.5" y="2.5" width="303" height="49" stroke="black" stroke-width="5"></rect>
<path d="M23.5735 24.9102H21.2404C21.1978 24.6083 21.1108 24.3402 20.9794 24.1058C20.848 23.8679 20.6793 23.6655 20.4734 23.4986C20.2674 23.3317 20.0295 23.2038 19.7596 23.1151C19.4933 23.0263 19.2038 22.9819 18.8913 22.9819C18.3267 22.9819 17.8349 23.1222 17.4158 23.4027C16.9968 23.6797 16.6719 24.0845 16.4411 24.6172C16.2102 25.1463 16.0948 25.7891 16.0948 26.5455C16.0948 27.3232 16.2102 27.9766 16.4411 28.5057C16.6754 29.0348 17.0021 29.4343 17.4212 29.7042C17.8402 29.9741 18.3249 30.109 18.8754 30.109C19.1843 30.109 19.4702 30.0682 19.733 29.9865C19.9993 29.9048 20.2354 29.7859 20.4414 29.6296C20.6474 29.4698 20.8178 29.2763 20.9528 29.049C21.0913 28.8217 21.1871 28.5625 21.2404 28.2713L23.5735 28.282C23.5131 28.7827 23.3622 29.2656 23.1207 29.7308C22.8828 30.1925 22.5614 30.6062 22.1566 30.9719C21.7553 31.3342 21.2759 31.6218 20.7184 31.8349C20.1644 32.0444 19.5376 32.1491 18.8381 32.1491C17.8651 32.1491 16.995 31.929 16.228 31.4886C15.4645 31.0483 14.8608 30.4109 14.4169 29.5763C13.9766 28.7418 13.7564 27.7315 13.7564 26.5455C13.7564 25.3558 13.9801 24.3438 14.4276 23.5092C14.875 22.6747 15.4822 22.0391 16.2493 21.6023C17.0163 21.1619 17.8793 20.9418 18.8381 20.9418C19.4702 20.9418 20.0561 21.0305 20.5959 21.2081C21.1392 21.3857 21.6204 21.6449 22.0394 21.9858C22.4585 22.3232 22.7994 22.7369 23.0621 23.2269C23.3285 23.717 23.4989 24.2781 23.5735 24.9102ZM35.2523 26.5455C35.2523 27.7351 35.0268 28.7472 34.5758 29.5817C34.1284 30.4162 33.5176 31.0536 32.7434 31.494C31.9728 31.9308 31.1064 32.1491 30.144 32.1491C29.1745 32.1491 28.3045 31.929 27.5339 31.4886C26.7633 31.0483 26.1543 30.4109 25.7069 29.5763C25.2594 28.7418 25.0357 27.7315 25.0357 26.5455C25.0357 25.3558 25.2594 24.3438 25.7069 23.5092C26.1543 22.6747 26.7633 22.0391 27.5339 21.6023C28.3045 21.1619 29.1745 20.9418 30.144 20.9418C31.1064 20.9418 31.9728 21.1619 32.7434 21.6023C33.5176 22.0391 34.1284 22.6747 34.5758 23.5092C35.0268 24.3438 35.2523 25.3558 35.2523 26.5455ZM32.9139 26.5455C32.9139 25.7749 32.7985 25.125 32.5676 24.5959C32.3404 24.0668 32.019 23.6655 31.6035 23.392C31.188 23.1186 30.7015 22.9819 30.144 22.9819C29.5865 22.9819 29.1 23.1186 28.6845 23.392C28.269 23.6655 27.9458 24.0668 27.715 24.5959C27.4877 25.125 27.3741 25.7749 27.3741 26.5455C27.3741 27.3161 27.4877 27.9659 27.715 28.495C27.9458 29.0241 28.269 29.4254 28.6845 29.6989C29.1 29.9723 29.5865 30.109 30.144 30.109C30.7015 30.109 31.188 29.9723 31.6035 29.6989C32.019 29.4254 32.3404 29.0241 32.5676 28.495C32.7985 27.9659 32.9139 27.3161 32.9139 26.5455ZM43.6991 21.0909H46.0056V28.1754C46.0056 28.9709 45.8156 29.6669 45.4356 30.2635C45.0592 30.8601 44.5319 31.3253 43.8536 31.6591C43.1753 31.9893 42.3852 32.1545 41.4832 32.1545C40.5777 32.1545 39.7858 31.9893 39.1075 31.6591C38.4292 31.3253 37.9019 30.8601 37.5255 30.2635C37.1491 29.6669 36.9608 28.9709 36.9608 28.1754V21.0909H39.2673V27.9783C39.2673 28.3938 39.3579 28.7631 39.539 29.0863C39.7236 29.4094 39.9829 29.6634 40.3167 29.848C40.6505 30.0327 41.0393 30.125 41.4832 30.125C41.9307 30.125 42.3195 30.0327 42.6498 29.848C42.9836 29.6634 43.241 29.4094 43.4221 29.0863C43.6068 28.7631 43.6991 28.3938 43.6991 27.9783V21.0909ZM47.9032 32V21.0909H52.2072C53.0311 21.0909 53.7342 21.2383 54.3166 21.533C54.9025 21.8242 55.3482 22.2379 55.6536 22.7741C55.9625 23.3068 56.117 23.9336 56.117 24.6545C56.117 25.3789 55.9608 26.0021 55.6483 26.5241C55.3358 27.0426 54.883 27.4403 54.29 27.7173C53.7005 27.9943 52.9867 28.1328 52.1486 28.1328H49.2669V26.2791H51.7757C52.2161 26.2791 52.5819 26.2187 52.873 26.098C53.1642 25.9773 53.3809 25.7962 53.5229 25.5547C53.6685 25.3132 53.7413 25.0131 53.7413 24.6545C53.7413 24.2923 53.6685 23.9869 53.5229 23.7383C53.3809 23.4897 53.1625 23.3015 52.8677 23.1737C52.5765 23.0423 52.209 22.9766 51.7651 22.9766H50.2097V32H47.9032ZM53.7946 27.0355L56.5059 32H53.9597L51.307 27.0355H53.7946ZM57.747 32V21.0909H62.051C62.8748 21.0909 63.5779 21.2383 64.1603 21.533C64.7463 21.8242 65.1919 22.2379 65.4973 22.7741C65.8063 23.3068 65.9608 23.9336 65.9608 24.6545C65.9608 25.3789 65.8045 26.0021 65.492 26.5241C65.1795 27.0426 64.7267 27.4403 64.1337 27.7173C63.5442 27.9943 62.8304 28.1328 61.9924 28.1328H59.1106V26.2791H61.6195C62.0598 26.2791 62.4256 26.2187 62.7168 26.098C63.008 25.9773 63.2246 25.7962 63.3667 25.5547C63.5123 25.3132 63.585 25.0131 63.585 24.6545C63.585 24.2923 63.5123 23.9869 63.3667 23.7383C63.2246 23.4897 63.0062 23.3015 62.7115 23.1737C62.4203 23.0423 62.0527 22.9766 61.6088 22.9766H60.0534V32H57.747ZM63.6383 27.0355L66.3496 32H63.8034L61.1507 27.0355H63.6383ZM69.8972 21.0909V32H67.5907V21.0909H69.8972ZM71.7948 32V21.0909H79.1457V22.9925H74.1013V25.592H78.7675V27.4936H74.1013V30.0984H79.167V32H71.7948ZM80.9794 32V21.0909H83.2859V30.0984H87.9627V32H80.9794Z" fill="#AFAFAF"></path>
</svg>
