<svg width="55" height="55" viewBox="0 0 55 55" fill="none" xmlns="http://www.w3.org/2000/svg">
<path fill-rule="evenodd" clip-rule="evenodd" d="M27.5 4.88149C42.756 -11.7762 80.8996 17.3729 27.5 54.8546C-25.8996 17.3766 12.244 -11.7762 27.5 4.88149Z" fill="black"></path>
<path d="M3.512 25V19.08H4.696V21.544H6.928V19.08H8.12V25H6.928V22.608H4.696V25H3.512ZM8.761 25L10.617 19.08H12.113L13.969 25H12.737L12.361 23.76H10.345L9.977 25H8.761ZM10.625 22.696H12.081L11.353 20.096L10.625 22.696ZM14.6136 25V19.08H17.0616C17.2962 19.08 17.5149 19.1093 17.7176 19.168C17.9202 19.2213 18.0989 19.3173 18.2536 19.456C18.4082 19.5947 18.5282 19.7867 18.6136 20.032C18.7042 20.2773 18.7496 20.592 18.7496 20.976C18.7496 21.248 18.7229 21.48 18.6696 21.672C18.6162 21.864 18.5442 22.0213 18.4536 22.144C18.3682 22.2667 18.2696 22.3653 18.1576 22.44C18.0456 22.5147 17.9309 22.576 17.8136 22.624L18.9176 25H17.7096L16.7576 22.808C16.6936 22.808 16.6189 22.808 16.5336 22.808C16.4536 22.8027 16.3709 22.8 16.2856 22.8C16.2002 22.8 16.1149 22.8 16.0296 22.8C15.9442 22.8 15.8669 22.7973 15.7976 22.792V25H14.6136ZM15.7976 21.856H16.8536C16.9602 21.856 17.0562 21.8427 17.1416 21.816C17.2269 21.7893 17.3016 21.744 17.3656 21.68C17.4296 21.6107 17.4776 21.52 17.5096 21.408C17.5469 21.296 17.5656 21.152 17.5656 20.976C17.5656 20.8107 17.5469 20.6747 17.5096 20.568C17.4776 20.456 17.4296 20.3707 17.3656 20.312C17.3016 20.248 17.2269 20.2053 17.1416 20.184C17.0562 20.1573 16.9602 20.144 16.8536 20.144H15.7976V21.856ZM19.6292 25V19.08H22.1332C22.5332 19.08 22.8665 19.152 23.1332 19.296C23.3999 19.4347 23.6105 19.6373 23.7652 19.904C23.9252 20.1653 24.0372 20.4773 24.1012 20.84C24.1652 21.2027 24.1972 21.6027 24.1972 22.04C24.1972 22.7067 24.1199 23.2587 23.9652 23.696C23.8159 24.1333 23.5892 24.4613 23.2852 24.68C22.9812 24.8933 22.5972 25 22.1332 25H19.6292ZM20.8132 23.936H22.0132C22.2585 23.936 22.4532 23.8667 22.5972 23.728C22.7412 23.584 22.8452 23.3707 22.9092 23.088C22.9785 22.8053 23.0132 22.456 23.0132 22.04C23.0132 21.656 22.9919 21.3413 22.9492 21.096C22.9065 20.8453 22.8425 20.6507 22.7572 20.512C22.6772 20.3733 22.5732 20.2773 22.4452 20.224C22.3225 20.1707 22.1785 20.144 22.0132 20.144H20.8132V23.936ZM29.1212 25.048C28.7745 25.048 28.4679 25.008 28.2012 24.928C27.9399 24.848 27.7159 24.7013 27.5292 24.488C27.3479 24.2747 27.2092 23.9707 27.1132 23.576C27.0225 23.176 26.9772 22.6587 26.9772 22.024C26.9772 21.4107 27.0252 20.9093 27.1212 20.52C27.2225 20.1253 27.3665 19.8213 27.5532 19.608C27.7399 19.3893 27.9665 19.2373 28.2332 19.152C28.4999 19.0667 28.8012 19.024 29.1372 19.024C29.4039 19.024 29.6519 19.04 29.8812 19.072C30.1159 19.0987 30.3265 19.1333 30.5132 19.176C30.6999 19.2133 30.8572 19.256 30.9852 19.304V20.224C30.8892 20.2027 30.7585 20.1813 30.5932 20.16C30.4332 20.1387 30.2492 20.1227 30.0412 20.112C29.8332 20.096 29.6145 20.088 29.3852 20.088C29.1612 20.088 28.9692 20.1147 28.8092 20.168C28.6545 20.216 28.5292 20.3093 28.4332 20.448C28.3425 20.5813 28.2732 20.776 28.2252 21.032C28.1825 21.288 28.1612 21.6213 28.1612 22.032C28.1612 22.4267 28.1799 22.752 28.2172 23.008C28.2599 23.264 28.3265 23.464 28.4172 23.608C28.5079 23.7467 28.6305 23.8453 28.7852 23.904C28.9452 23.9573 29.1452 23.984 29.3852 23.984C29.7905 23.984 30.1185 23.976 30.3692 23.96C30.6252 23.944 30.8305 23.9253 30.9852 23.904V24.816C30.8412 24.864 30.6759 24.9067 30.4892 24.944C30.3025 24.976 30.0972 25 29.8732 25.016C29.6492 25.0373 29.3985 25.048 29.1212 25.048ZM31.4407 25L33.2967 19.08H34.7927L36.6487 25H35.4167L35.0407 23.76H33.0247L32.6567 25H31.4407ZM33.3047 22.696H34.7607L34.0327 20.096L33.3047 22.696ZM37.3333 25V19.08H38.2853L40.7653 22.984V19.08H41.9493V25H40.9973L38.5253 21.096V25H37.3333ZM42.9261 25V19.08H45.4301C45.8301 19.08 46.1634 19.152 46.4301 19.296C46.6967 19.4347 46.9074 19.6373 47.0621 19.904C47.2221 20.1653 47.3341 20.4773 47.3981 20.84C47.4621 21.2027 47.4941 21.6027 47.4941 22.04C47.4941 22.7067 47.4167 23.2587 47.2621 23.696C47.1127 24.1333 46.8861 24.4613 46.5821 24.68C46.2781 24.8933 45.8941 25 45.4301 25H42.9261ZM44.1101 23.936H45.3101C45.5554 23.936 45.7501 23.8667 45.8941 23.728C46.0381 23.584 46.1421 23.3707 46.2061 23.088C46.2754 22.8053 46.3101 22.456 46.3101 22.04C46.3101 21.656 46.2887 21.3413 46.2461 21.096C46.2034 20.8453 46.1394 20.6507 46.0541 20.512C45.9741 20.3733 45.8701 20.2773 45.7421 20.224C45.6194 20.1707 45.4754 20.144 45.3101 20.144H44.1101V23.936ZM49.6544 25V23.208L47.8704 19.08H49.1024L50.2704 22L51.4304 19.08H52.6144L50.8384 23.208V25H49.6544Z" fill="white"></path>
</svg>
